<?xml version="1.0" encoding="iso-8859-1"?>
<!-- Generator: Adobe Illustrator 16.0.4, SVG Export Plug-In . SVG Version: 6.00 Build 0)  -->
<!DOCTYPE svg PUBLIC "-//W3C//DTD SVG 1.1//EN" "http://www.w3.org/Graphics/SVG/1.1/DTD/svg11.dtd">
<svg version="1.1" id="Layer_1" xmlns="http://www.w3.org/2000/svg" xmlns:xlink="http://www.w3.org/1999/xlink" x="0px" y="0px"
	 width="400px" height="400px" viewBox="0 0 400 400" style="enable-background:new 0 0 400 400;" xml:space="preserve">
<rect style="fill:#1D9D74;" width="400" height="400"/>
<g>
	<path style="fill-rule:evenodd;clip-rule:evenodd;fill:#FEFEFE;" d="M326.96,173.917c0,16.487-0.052,32.973,0.04,49.459
		c0.021,3.611-0.814,6.66-4.056,8.516c-13.782,7.89-28.135,14.229-44.007,16.71c-12.941,2.023-25.051-0.809-36.032-7.145
		c-24.193-13.958-48.732-13.409-73.905-3.507c-8.518,3.351-16.793,7.194-24.924,11.396s-14.147,0.434-14.154-8.793
		c-0.026-31.806,0.031-63.612-0.064-95.418c-0.013-4.029,1.045-7.391,4.54-9.344c21.972-12.286,44.607-22.282,70.641-21.477
		c15.507,0.479,30.117,4.73,43.421,11.911c16.602,8.96,31.955,6.43,47.579-1.33c5.805-2.884,11.414-6.168,17.255-8.972
		c7.987-3.833,13.619-0.267,13.65,8.536C327.001,140.945,326.96,157.432,326.96,173.917z"/>
	<path style="fill-rule:evenodd;clip-rule:evenodd;fill:#FCFDFD;" d="M104.083,214.012c-0.001-26.804-0.033-53.609,0.045-80.412
		c0.009-2.973-0.541-5.087-3.056-7.217c-7.216-6.11-7.349-17.18-0.731-24.055c6.762-7.024,17.767-7.102,24.566-0.173
		c6.727,6.854,6.789,17.907-0.354,24.051c-2.75,2.365-3.437,4.697-3.431,8.062c0.089,53.442,0.069,106.883,0.043,160.324
		c-0.001,2.736,0.952,6.453-2.422,7.434c-4.065,1.182-8.614,1.502-12.661-0.33c-2.46-1.115-2.002-3.947-2.002-6.275
		C104.084,268.284,104.083,241.147,104.083,214.012z"/>
</g>
</svg>
